<svg xmlns="http://www.w3.org/2000/svg" version="1.1" xmlns:xlink="http://www.w3.org/1999/xlink" xmlns:svgjs="http://svgjs.dev/svgjs" width="100%" height="100%" viewBox="0 0 1000 600"><rect width="1000" height="600" x="0" y="0" fill="#ffffff"/><g><circle r="166.66666666666666" cx="414.04101053873694" cy="436.2631852322047" fill="#000000" transform="matrix(0.5053072891727879,0,0,0.5053072891727879,0,79.55306551114991)"/><path d="M318.3914978796962 508.62838967367577L299.88659557287957 508.62838967367577L299.88659557287957 363.9286320659024L318.3914978796962 363.9286320659024L318.3914978796962 436.50829028585053L319.0655175001432 436.50829028585053L379.94174412869404 363.9286320659024L400.8976268734997 363.9286320659024L318.3914978796962 462.5193201840084L318.3914978796962 508.62838967367577ZM406.1978720706508 508.62838967367577L385.45645011416923 508.62838967367577L340.69541986539576 427.8992214974143L351.93929262467014 413.34652514685484L406.1978720706508 508.62838967367577ZM484.9356186410462 511.26319364451393L484.9356186410462 511.26319364451393Q466.8596379108776 511.26319364451393 452.73586313696626 502.3477523013291Q438.6120883630548 493.40167370266937 430.46257840674156 476.6430949579198Q422.3130684504282 459.8845162131703 422.3130684504282 436.2631922420516L422.3130684504282 436.2631922420516Q422.3130684504282 412.8869663147319 430.585127428641 396.0058385480829Q438.85718640685377 379.15534803690883 453.28733373551376 370.20926943824907Q467.7481183196486 361.26319083958936 486.49811867026415 361.26319083958936L486.49811867026415 361.26319083958936Q500.8363542324996 361.26319083958936 510.5483642180308 366.900445846964Q520.2297369480873 372.5377008543386 526.4184625540095 378.9102499931099L526.4184625540095 378.9102499931099L516.0630702035061 390.6136815845072Q510.76282500635494 384.884514810708 503.80816801356127 381.1161323873Q496.85351102076754 377.3783872193668 486.49811867026415 377.3783872193668L486.49811867026415 377.3783872193668Q473.0483635167998 377.3783872193668 462.87679469914553 384.54750500048453Q452.73586313696626 391.71662278160227 447.1292453850665 404.7374563584186Q441.4919903776919 417.758289935235 441.4919903776919 435.83427066540355L441.4919903776919 435.83427066540355Q441.4919903776919 454.15534943937104 446.79223557484295 467.39064380451146Q452.09248077199413 480.6259381696519 462.0189515458494 487.8869677171942Q471.9454223197047 495.17863452021135 486.0385598381413 495.17863452021135L486.0385598381413 495.17863452021135Q493.54468742948245 495.17863452021135 500.3767954003767 492.8502031041218Q507.2395406267458 490.55240894350715 511.191746583003 486.56956573177507L511.191746583003 486.56956573177507L511.191746583003 448.85510424221997L482.30081467020807 448.85510424221997L482.30081467020807 433.6283882712135L528.1954233715514 433.6283882712135L528.1954233715514 494.50461489976436Q521.3326781451824 501.5818209144575 510.2113544078074 506.4225072794857Q499.05939341495764 511.26319364451393 484.9356186410462 511.26319364451393Z " fill="#ffffff" transform="matrix(0.5053072891727879,0,0,0.5053072891727879,0,79.55306551114991)"/><path d="M680.9687360633372 508.8287646454647L664.0410143877875 508.8287646454647L664.0410143877875 375.1337320808803L704.4071199217907 375.1337320808803Q719.2967212618228 375.1337320808803 730.3931541996413 378.8985932562116Q741.4895871374599 382.66345443154285 747.7171770515417 391.2405441768465Q753.9447669656236 399.78932669526796 753.9447669656236 414.4524702202425L753.9447669656236 414.4524702202425Q753.9447669656236 428.52116198069103 747.7171770515417 437.6077818098741Q741.4895871374599 446.66609441217497 730.2799252921126 451.25186516708976Q719.0702634467652 455.8376359220046 704.4071199217907 455.8376359220046L704.4071199217907 455.8376359220046L680.9687360633372 455.8376359220046L680.9687360633372 508.8287646454647ZM680.9687360633372 388.77781543809596L680.9687360633372 441.96709474973136L702.368999586273 441.96709474973136Q719.8911730263487 441.96709474973136 728.3550338641237 435.2582819786523Q736.8188947018984 428.52116198069103 736.8188947018984 414.4524702202425L736.8188947018984 414.4524702202425Q736.8188947018984 399.9874772834433 728.2418049565949 394.3826463607696Q719.6930224381734 388.77781543809596 702.368999586273 388.77781543809596L702.368999586273 388.77781543809596L680.9687360633372 388.77781543809596ZM826.6943400528525 511.263186157333L826.6943400528525 511.263186157333Q813.6447084601627 511.263186157333 802.5482755223442 505.14882515077994Q791.4235353576435 499.0344641442269 784.6014936790356 487.42850112252887Q777.7794520004278 475.8225381008309 777.7794520004278 459.51757541668934L777.7794520004278 459.51757541668934Q777.7794520004278 442.7880043293149 784.6014936790356 431.1820413076169Q791.4235353576435 419.54777105903673 802.5482755223442 413.4334100524836Q813.6447084601627 407.31904904593057 826.6943400528525 407.31904904593057L826.6943400528525 407.31904904593057Q839.7439716455422 407.31904904593057 850.8404045833606 413.4334100524836Q861.9651447480614 419.54777105903673 868.7871864266693 431.1820413076169Q875.6092281052771 442.7880043293149 875.6092281052771 459.51757541668934L875.6092281052771 459.51757541668934Q875.6092281052771 475.8225381008309 868.7871864266693 487.42850112252887Q861.9651447480614 499.0344641442269 850.8404045833606 505.14882515077994Q839.7439716455422 511.263186157333 826.6943400528525 511.263186157333ZM826.6943400528525 497.42095221194205L826.6943400528525 497.42095221194205Q836.2621827390327 497.42095221194205 843.3956039133446 492.63703086885187Q850.5290250876566 487.82480229887955 854.4071151705167 479.27601978045806Q858.2852052533767 470.7272372620366 858.2852052533767 459.51757541668934L858.2852052533767 459.51757541668934Q858.2852052533767 448.08145575628447 854.4071151705167 439.4194443303343Q850.5290250876566 430.7574329043841 843.3956039133446 425.9735115612939Q836.2621827390327 421.18959021820376 826.6943400528525 421.18959021820376L826.6943400528525 421.18959021820376Q817.1264973666722 421.18959021820376 810.0779978730068 425.9735115612939Q803.0578056062236 430.7574329043841 799.0664866158347 439.4194443303343Q795.1034748523282 448.08145575628447 795.1034748523282 459.51757541668934L795.1034748523282 459.51757541668934Q795.1034748523282 470.7272372620366 799.0664866158347 479.27601978045806Q803.0578056062236 487.82480229887955 810.0779978730068 492.63703086885187Q817.1264973666722 497.42095221194205 826.6943400528525 497.42095221194205ZM934.3184166589397 508.8287646454647L917.5888455715652 508.8287646454647L917.5888455715652 409.7817777846811L931.4593867438384 409.7817777846811L932.874748087948 433.2201616431346L933.4975070793562 433.2201616431346Q941.2253800181941 421.18959021820376 952.6614996785988 414.25431963206717Q964.0693121121216 407.31904904593057 977.7133954693372 407.31904904593057L977.7133954693372 407.31904904593057Q983.2333047113643 407.31904904593057 988.0172260544546 408.2531875330428Q992.8011473975446 409.15901879327293 997.2736892449307 411.3952897169659L997.2736892449307 411.3952897169659L993.4239063889529 425.8885898806473Q988.3286055501586 424.04862013330495 984.6486660554738 423.22771055372147Q980.9687265607892 422.4068009741379 975.0808233692935 422.4068009741379L975.0808233692935 422.4068009741379Q963.8711615239463 422.4068009741379 953.567330938829 428.8325414763951Q943.2635003537118 435.2582819786523 934.3184166589397 450.7423350832103L934.3184166589397 450.7423350832103L934.3184166589397 508.8287646454647ZM1090.4327729142187 511.263186157333L1090.4327729142187 511.263186157333Q1075.9677799774195 511.263186157333 1067.5888408202911 506.0829636378922Q1059.238208890045 500.87443389156925 1055.6714983028892 491.70289238173956Q1052.1047877157332 482.53135087191 1052.1047877157332 470.30262885880376L1052.1047877157332 470.30262885880376L1052.1047877157332 423.4258611418968L1024.1938620098936 423.4258611418968L1024.1938620098936 410.80083795243996L1052.7275467071413 409.7817777846811L1054.9638176308345 377.9927619959815L1068.8343588031075 377.9927619959815L1068.8343588031075 409.7817777846811L1117.5227890404747 409.7817777846811L1117.5227890404747 423.4258611418968L1068.8343588031075 423.4258611418968L1068.8343588031075 470.50077944697915Q1068.8343588031075 479.27601978045806 1071.0706297268007 485.39038078701117Q1073.3069006504936 491.5047417935643 1078.7985026656386 494.5619222968408Q1084.3184119076657 497.61910280011733 1093.886254593846 497.61910280011733L1093.886254593846 497.61910280011733Q1101.0196757681579 497.61910280011733 1106.7377355983604 496.40189204418317Q1112.4274882016805 495.184681288249 1117.7492468555322 493.14656095273125L1117.7492468555322 493.14656095273125L1121.4008791233348 505.37528296583747Q1114.6920663522558 507.8097044777058 1107.2472656822397 509.5364453175194Q1099.8024650122238 511.263186157333 1090.4327729142187 511.263186157333ZM1198.2550001084815 508.8287646454647L1181.7235796092823 508.8287646454647L1181.7235796092823 401.431145854435Q1181.7235796092823 389.40057442950416 1186.1111997760217 380.3139546003211Q1190.4988199427612 371.2556419980202 1199.27406027624 366.27357006675476Q1208.0209933828369 361.26319090860704 1221.6933839669346 361.26319090860704L1221.6933839669346 361.26319090860704Q1229.0249557294221 361.26319090860704 1236.0451479962053 362.59363057207Q1243.0936474898706 363.92407023553295 1250.2270686641825 366.98125073880954L1250.2270686641825 366.98125073880954L1246.3489785813226 379.6062739282663Q1240.2346175747693 376.74724401316513 1235.0260878284464 375.84141275293507Q1229.8458653090056 374.93558149270496 1223.3068958992194 374.93558149270496L1223.3068958992194 374.93558149270496Q1210.0591137183546 374.93558149270496 1204.1429032999768 381.84254485195936Q1198.2550001084815 388.77781543809596 1198.2550001084815 400.8083868630268L1198.2550001084815 400.8083868630268L1198.2550001084815 508.8287646454647ZM1239.8100091715364 423.4258611418968L1153.4163527270919 423.4258611418968L1153.4163527270919 410.80083795243996L1182.3463386006902 409.7817777846811L1239.8100091715364 409.7817777846811L1239.8100091715364 423.4258611418968ZM1315.8432205770994 511.263186157333L1315.8432205770994 511.263186157333Q1302.7935889844098 511.263186157333 1291.697156046591 505.14882515077994Q1280.5724158818903 499.0344641442269 1273.7503742032825 487.42850112252887Q1266.9283325246747 475.8225381008309 1266.9283325246747 459.51757541668934L1266.9283325246747 459.51757541668934Q1266.9283325246747 442.7880043293149 1273.7503742032825 431.1820413076169Q1280.5724158818903 419.54777105903673 1291.697156046591 413.4334100524836Q1302.7935889844098 407.31904904593057 1315.8432205770994 407.31904904593057L1315.8432205770994 407.31904904593057Q1328.8928521697892 407.31904904593057 1339.9892851076077 413.4334100524836Q1351.1140252723085 419.54777105903673 1357.9360669509163 431.1820413076169Q1364.7581086295243 442.7880043293149 1364.7581086295243 459.51757541668934L1364.7581086295243 459.51757541668934Q1364.7581086295243 475.8225381008309 1357.9360669509163 487.42850112252887Q1351.1140252723085 499.0344641442269 1339.9892851076077 505.14882515077994Q1328.8928521697892 511.263186157333 1315.8432205770994 511.263186157333ZM1315.8432205770994 497.42095221194205L1315.8432205770994 497.42095221194205Q1325.4110632632796 497.42095221194205 1332.5444844375918 492.63703086885187Q1339.6779056119037 487.82480229887955 1343.5559956947636 479.27601978045806Q1347.4340857776235 470.7272372620366 1347.4340857776235 459.51757541668934L1347.4340857776235 459.51757541668934Q1347.4340857776235 448.08145575628447 1343.5559956947636 439.4194443303343Q1339.6779056119037 430.7574329043841 1332.5444844375918 425.9735115612939Q1325.4110632632796 421.18959021820376 1315.8432205770994 421.18959021820376L1315.8432205770994 421.18959021820376Q1306.2753778909191 421.18959021820376 1299.2268783972538 425.9735115612939Q1292.2066861304706 430.7574329043841 1288.2153671400818 439.4194443303343Q1284.2523553765752 448.08145575628447 1284.2523553765752 459.51757541668934L1284.2523553765752 459.51757541668934Q1284.2523553765752 470.7272372620366 1288.2153671400818 479.27601978045806Q1292.2066861304706 487.82480229887955 1299.2268783972538 492.63703086885187Q1306.2753778909191 497.42095221194205 1315.8432205770994 497.42095221194205ZM1459.7288548192723 511.263186157333L1459.7288548192723 511.263186157333Q1444.0466511265388 511.263186157333 1435.6960191962928 502.2048735550322Q1427.3170800391645 493.14656095273125 1427.3170800391645 475.5960802857733L1427.3170800391645 475.5960802857733L1427.3170800391645 377.3700030045733L1393.489943914947 377.3700030045733L1393.489943914947 363.7259196473576L1444.0466511265388 363.7259196473576L1444.0466511265388 476.84159826858973Q1444.0466511265388 487.6266517107042 1449.3401025535084 492.5238019613231Q1454.6335539804782 497.42095221194205 1463.408794313957 497.42095221194205L1463.408794313957 497.42095221194205Q1467.6831855731677 497.42095221194205 1472.1557274205536 496.2886631366544Q1476.656576494822 495.184681288249 1482.148178509967 492.72195254949844L1482.148178509967 492.72195254949844L1486.422569769178 505.37528296583747Q1479.7137569980985 507.8097044777058 1473.7975465797206 509.5364453175194Q1467.8813361613431 511.263186157333 1459.7288548192723 511.263186157333ZM1580.4025630180492 508.8287646454647L1563.6729919306747 508.8287646454647L1563.6729919306747 423.4258611418968L1517.6171337933513 423.4258611418968L1517.6171337933513 409.7817777846811L1580.4025630180492 409.7817777846811L1580.4025630180492 508.8287646454647ZM1570.2119613404604 388.9759660262713L1570.2119613404604 388.9759660262713Q1564.4939015102584 388.9759660262713 1560.6158114273983 385.4092554391153Q1556.7377213445382 381.84254485195936 1556.7377213445382 375.95464166046384L1556.7377213445382 375.95464166046384Q1556.7377213445382 370.03843124208606 1560.6158114273983 366.4717206549301Q1564.4939015102584 362.9050100677741 1570.2119613404604 362.9050100677741L1570.2119613404604 362.9050100677741Q1575.901713943781 362.9050100677741 1579.779804026641 366.4717206549301Q1583.657894109501 370.03843124208606 1583.657894109501 375.95464166046384L1583.657894109501 375.95464166046384Q1583.657894109501 381.84254485195936 1579.779804026641 385.4092554391153Q1575.901713943781 388.9759660262713 1570.2119613404604 388.9759660262713ZM1682.7048809702844 511.263186157333L1682.7048809702844 511.263186157333Q1669.655249377595 511.263186157333 1658.5588164397766 505.14882515077994Q1647.4340762750755 499.0344641442269 1640.6120345964678 487.42850112252887Q1633.78999291786 475.8225381008309 1633.78999291786 459.51757541668934L1633.78999291786 459.51757541668934Q1633.78999291786 442.7880043293149 1640.6120345964678 431.1820413076169Q1647.4340762750755 419.54777105903673 1658.5588164397766 413.4334100524836Q1669.655249377595 407.31904904593057 1682.7048809702844 407.31904904593057L1682.7048809702844 407.31904904593057Q1695.7545125629742 407.31904904593057 1706.8509455007932 413.4334100524836Q1717.9756856654938 419.54777105903673 1724.7977273441013 431.1820413076169Q1731.6197690227093 442.7880043293149 1731.6197690227093 459.51757541668934L1731.6197690227093 459.51757541668934Q1731.6197690227093 475.8225381008309 1724.7977273441013 487.42850112252887Q1717.9756856654938 499.0344641442269 1706.8509455007932 505.14882515077994Q1695.7545125629742 511.263186157333 1682.7048809702844 511.263186157333ZM1682.7048809702844 497.42095221194205L1682.7048809702844 497.42095221194205Q1692.272723656465 497.42095221194205 1699.4061448307768 492.63703086885187Q1706.5395660050888 487.82480229887955 1710.417656087949 479.27601978045806Q1714.295746170809 470.7272372620366 1714.295746170809 459.51757541668934L1714.295746170809 459.51757541668934Q1714.295746170809 448.08145575628447 1710.417656087949 439.4194443303343Q1706.5395660050888 430.7574329043841 1699.4061448307768 425.9735115612939Q1692.272723656465 421.18959021820376 1682.7048809702844 421.18959021820376L1682.7048809702844 421.18959021820376Q1673.1370382841044 421.18959021820376 1666.0885387904389 425.9735115612939Q1659.068346523656 430.7574329043841 1655.077027533267 439.4194443303343Q1651.1140157697605 448.08145575628447 1651.1140157697605 459.51757541668934L1651.1140157697605 459.51757541668934Q1651.1140157697605 470.7272372620366 1655.077027533267 479.27601978045806Q1659.068346523656 487.82480229887955 1666.0885387904389 492.63703086885187Q1673.1370382841044 497.42095221194205 1682.7048809702844 497.42095221194205Z " fill="#000000" transform="matrix(0.5053072891727879,0,0,0.5053072891727879,0,79.55306551114991)"/></g></svg>